{"title":"Over to Bill S01E01 Xvid RB58.avi","uid":10071630,"size":272551992,"categoryP":"video","categoryS":"tv_shows","magnet":"?xt=urn:btih:3f43093ae62f6d861bb9bca5bf2d6998695c4bd4&amp;dn=Over+to+Bill+S01E01+Xvid+RB58.avi&amp;tr=udp%3A%2F%2Ftracker.openbittorrent.com%3A80&amp;tr=udp%3A%2F%2Fopen.demonii.com%3A1337&amp;tr=udp%3A%2F%2Ftracker.coppersurfer.tk%3A6969&amp;tr=udp%3A%2F%2Fexodus.desync.com%3A6969","seeders":0,"leechers":1,"uploader":"RedBaron58","files":1,"time":1398862854,"description":"Over to Bill S01E01 Xvid - Comedy Playhouse BBC 2014 \n &lt;a href=&quot;\nhttp://www.comedy.co.uk/guide/tv/over_to_bill/&quot; rel=&quot;nofollow&quot; target=&quot;_NEW&quot;&gt;\nhttp://www.comedy.co.uk/guide/tv/over_to_bill/&lt;/a&gt;\n\n\nThank you for your kind comments and thumbs ups on my other torrents, your feedback is welcome.\n\n\nAbout the Episode:\nThe first in a trio of new one-off sitcoms under the banner of Comedy Playhouse, the long-running BBC \nanthology from the 1960s and 1970s that launched such programmes as Steptoe and Son, Last of the Summer Wine \nand Are You Being Served? \nOutnumbered star Hugh Dennis plays TV weatherman Bill Onion, who is desperate to get back onto the small \nscreen after being fired by the BBC. He calls up his friend Jez, who knows a Channel 4 bigwig, \nbut Jez's wife-to-be isn't too keen on any of her fiance's idiotic friends. \nNeil Morrissey, Helen George and Tracy-Ann Oberman co-star.\n\n\nI hope you enjoy.\n\n\nTechnical:\n\nGeneral\nComplete name                            : G:Over to Bill S01E01 Xvid RB58.avi\nFormat                                   : AVI\nFormat/Info                              : Audio Video Interleave\nFile size                                : 260 MiB\nDuration                                 : 29mn 33s\nOverall bit rate                         : 1 229 Kbps\n\nVideo\nID                                       : 0\nFormat                                   : MPEG-4 Visual\nFormat profile                           : Advanced Simple@L4\nFormat settings, BVOP                    : 2\nFormat settings, QPel                    : No\nFormat settings, GMC                     : No warppoints\nFormat settings, Matrix                  : Default (H.263)\nCodec ID                                 : DIVX\nCodec ID/Info                            : Project Mayo\nCodec ID/Hint                            : DivX 4\nDuration                                 : 29mn 33s\nBit rate                                 : 1 087 Kbps\nWidth                                    : 704 pixels\nHeight                                   : 396 pixels\nDisplay aspect ratio                     : 16:9\nFrame rate                               : 25.000 fps\nColor space                              : YUV\nChroma subsampling                       : 4:2:0\nBit depth                                : 8 bits\nScan type                                : Progressive\nCompression mode                         : Lossy\nBits/(Pixel*Frame)                       : 0.156\nStream size                              : 230 MiB (88%)\nWriting library                          : XviD 64\n\nAudio\nID                                       : 1\nFormat                                   : MPEG Audio\nFormat version                           : Version 1\nFormat profile                           : Layer 3\nCodec ID                                 : 55\nCodec ID/Hint                            : MP3\nDuration                                 : 29mn 33s\nBit rate mode                            : Constant\nBit rate                                 : 128 Kbps\nChannel(s)                               : 2 channels\nSampling rate                            : 48.0 KHz\nCompression mode                         : Lossy\nStream size                              : 27.1 MiB (10%)\nAlignment                                : Aligned on interleaves\nInterleave, duration                     : 24 ms (0.60 video frame)","torrent":{"xt":"urn:btih:3f43093ae62f6d861bb9bca5bf2d6998695c4bd4","amp;dn":"Over+to+Bill+S01E01+Xvid+RB58.avi","amp;tr":["udp%3A%2F%2Ftracker.openbittorrent.com%3A80","udp%3A%2F%2Fopen.demonii.com%3A1337","udp%3A%2F%2Ftracker.coppersurfer.tk%3A6969","udp%3A%2F%2Fexodus.desync.com%3A6969"],"infoHash":"3f43093ae62f6d861bb9bca5bf2d6998695c4bd4","infoHashBuffer":{"type":"Buffer","data":[63,67,9,58,230,47,109,134,27,185,188,165,191,45,105,152,105,92,75,212]},"announce":[],"urlList":[]}}